<?xml version="1.0" encoding="UTF-8"?>
<svg id="Layer_2" data-name="Layer 2" xmlns="http://www.w3.org/2000/svg" viewBox="0 0 677.4 150">
  <defs>
    <style>
      .cls-1 {
        fill: #aaab4e;
      }

      .cls-2 {
        fill: #fff;
      }

      .cls-3 {
        fill: #e2da47;
      }
    </style>
  </defs>
  <g id="Layer_1-2" data-name="Layer 1">
    <g>
      <g>
        <g>
          <path class="cls-1" d="M121.74,106.23l7.18-12.15s-4.99,2.18-7.99-2.89c-2.55-4.31-31.7-54.32-40.36-69.16-2.34-4.01-3.51-8.64-3.11-13.27.07-.8.18-1.59.36-2.36l-2.5-6.39-23.42,53.11,64.39,62.31,5.44-9.19Z"/>
          <path class="cls-3" d="M82.73,0H22.42C5.2,0-5.57,18.62,3.01,33.54l60.45,105.15c8.61,14.97,30.16,15.1,38.94.24l19.9-33.65s-3,.27-4.89-1.5c-1.67-1.57-32.91-63.35-40.03-77.46-1.5-2.98-2.33-6.27-2.25-9.61.03-1.33.18-2.76.5-4.28,1.44-6.75,5.47-10.91,7.09-12.43Z"/>
        </g>
        <path class="cls-3" d="M114.27,0h46.13c6.07,0,9.89,6.53,6.92,11.82l-22.9,40.74c-3.02,5.38-10.75,5.4-13.81.04l-23.22-40.74c-3.02-5.29.8-11.86,6.89-11.86Z"/>
      </g>
      <path class="cls-2" d="M668.09,83.82c0-8.77-3.67-15.85-11-21.21-6.68-4.91-14.77-7.36-24.26-7.36s-17.4,2.44-24.26,7.36c-7.52,5.36-11.28,12.44-11.28,21.21s3.39,15.99,10.16,21.35c6.77,5.38,15.23,8.06,25.39,8.06,9.31,0,17.4-2.63,24.26-7.92,7.34-5.64,11-12.81,11-21.49M677.4,83.89c0,11.47-4.61,20.74-13.82,27.79-8.56,6.49-18.81,9.73-30.75,9.73s-22.62-3.2-30.89-9.59c-9.12-7.05-13.68-16.36-13.68-27.93s4.56-20.92,13.68-27.79c8.37-6.3,18.67-9.45,30.89-9.45s22.1,3.1,30.47,9.31c9.4,6.96,14.11,16.27,14.11,27.93ZM585.32,55.96h-29.77v64.04h-8.04V55.96h-29.34v-7.9h67.15v7.9ZM505.23,120h-10.44l-54.31-61.5v61.5h-8.46V48.06h10.16l53.75,60.21v-60.21h9.31v71.94ZM411.6,120h-68.98V48.06h66.87v7.9h-58.82v23.7h33.43v7.34h-33.43v25.11h60.94v7.9ZM314.58,120h-8.18V48.06h8.18v71.94ZM292.47,30l-42.6,90h-9.87l-43.05-90h9.87l37.95,79.02,37.41-79.02h10.3Z"/>
    </g>
  </g>
</svg>