<?xml version="1.0" encoding="UTF-8"?><svg id="Layer_2" xmlns="http://www.w3.org/2000/svg" viewBox="0 0 61.53 54.83"><g id="Layer_2-2"><path d="M44.5,38.83l2.63-4.44s-1.82.8-2.92-1.06c-.93-1.58-11.59-19.85-14.75-25.28-.86-1.47-1.28-3.16-1.14-4.85.02-.29.07-.58.13-.86l-.91-2.34-8.56,19.41,23.54,22.77,1.99-3.36h0Z" style="fill:#9b9b2b;"/><path d="M30.24,0H8.19C1.9,0-2.04,6.81,1.1,12.26l22.1,38.44c3.15,5.47,11.02,5.52,14.24.09l7.27-12.3s-1.1.1-1.78-.55c-.61-.57-12.03-23.16-14.63-28.31-.55-1.09-.85-2.29-.82-3.51.01-.48.06-1.01.18-1.57.53-2.47,2-3.99,2.59-4.54h0Z" style="fill:#ddd741;"/><path d="M41.77,0h16.86c2.22,0,3.61,2.39,2.53,4.32l-8.37,14.89c-1.11,1.97-3.93,1.97-5.05.01l-8.49-14.89C38.15,2.4,39.54,0,41.77,0h0Z" style="fill:#ddd741;"/></g></svg>